<?xml version="1.0" standalone="yes"?>
<!DOCTYPE svg PUBLIC "-//W3C//DTD SVG 1.1//EN"
 "http://www.w3.org/Graphics/SVG/1.1/DTD/svg11.dtd">
<svg xmlns="http://www.w3.org/2000/svg" version="1.1"
  width="100%" height="100%" viewBox="0 0 1024 768"
  style="fill: none; font-family: Helvetica;
 font: Helvetica;
">

<!-- Creator: NGspice -->

<rect x="0" y="0" width="1024" height="768" fill="black" stroke="none"/>
<text stroke="none" fill="white" font-size="16" x="358" y="752">
time
</text>
<text stroke="none" fill="white" font-size="16" x="10" y="16">
tran2: DFF - Fixed
</text>
<path stroke="white" d="M50 704l0 -638"/>
<text stroke="none" fill="white" font-size="16" x="35" y="728">
0.0
</text>
<path stroke="white" stroke-dasharray="1,2" d="M142 704l0 -638"/>
<text stroke="none" fill="white" font-size="16" x="127" y="728">
0.5
</text>
<path stroke="white" stroke-dasharray="1,2" d="M234 704l0 -638"/>
<text stroke="none" fill="white" font-size="16" x="219" y="728">
1.0
</text>
<path stroke="white" stroke-dasharray="1,2" d="M326 704l0 -638"/>
<text stroke="none" fill="white" font-size="16" x="311" y="728">
1.5
</text>
<path stroke="white" stroke-dasharray="1,2" d="M418 704l0 -638"/>
<text stroke="none" fill="white" font-size="16" x="403" y="728">
2.0
</text>
<path stroke="white" stroke-dasharray="1,2" d="M510 704l0 -638"/>
<text stroke="none" fill="white" font-size="16" x="495" y="728">
2.5
</text>
<path stroke="white" stroke-dasharray="1,2" d="M602 704l0 -638"/>
<text stroke="none" fill="white" font-size="16" x="587" y="728">
3.0
</text>
<path stroke="white" stroke-dasharray="1,2" d="M694 704l0 -638"/>
<text stroke="none" fill="white" font-size="16" x="679" y="728">
3.5
</text>
<path stroke="white" stroke-dasharray="1,2" d="M786 704l0 -638"/>
<text stroke="none" fill="white" font-size="16" x="771" y="728">
4.0
</text>
<path stroke="white" stroke-dasharray="1,2" d="M878 704l0 -638"/>
<text stroke="none" fill="white" font-size="16" x="863" y="728">
4.5
</text>
<path stroke="white" stroke-dasharray="1,2" d="M970 704l0 -638"/>
<text stroke="none" fill="white" font-size="16" x="955" y="728">
5.0
</text>
<text stroke="none" fill="white" font-size="16" x="614" y="752">
ns
</text>
<path stroke="white" stroke-dasharray="1,2" d="M50 704l920 0"/>
<text stroke="none" fill="white" font-size="16" x="8" y="712">
-0.5
</text>
<path stroke="white" d="M50 646l920 0"/>
<text stroke="none" fill="white" font-size="16" x="18" y="654">
0.0
</text>
<path stroke="white" stroke-dasharray="1,2" d="M50 588l920 0"/>
<text stroke="none" fill="white" font-size="16" x="18" y="596">
0.5
</text>
<path stroke="white" stroke-dasharray="1,2" d="M50 530l920 0"/>
<text stroke="none" fill="white" font-size="16" x="18" y="538">
1.0
</text>
<path stroke="white" stroke-dasharray="1,2" d="M50 472l920 0"/>
<text stroke="none" fill="white" font-size="16" x="18" y="480">
1.5
</text>
<path stroke="white" stroke-dasharray="1,2" d="M50 414l920 0"/>
<text stroke="none" fill="white" font-size="16" x="18" y="422">
2.0
</text>
<path stroke="white" stroke-dasharray="1,2" d="M50 356l920 0"/>
<text stroke="none" fill="white" font-size="16" x="18" y="364">
2.5
</text>
<path stroke="white" stroke-dasharray="1,2" d="M50 298l920 0"/>
<text stroke="none" fill="white" font-size="16" x="18" y="306">
3.0
</text>
<path stroke="white" stroke-dasharray="1,2" d="M50 240l920 0"/>
<text stroke="none" fill="white" font-size="16" x="18" y="248">
3.5
</text>
<path stroke="white" stroke-dasharray="1,2" d="M50 182l920 0"/>
<text stroke="none" fill="white" font-size="16" x="18" y="190">
4.0
</text>
<path stroke="white" stroke-dasharray="1,2" d="M50 124l920 0"/>
<text stroke="none" fill="white" font-size="16" x="18" y="132">
4.5
</text>
<path stroke="white" stroke-dasharray="1,2" d="M50 66l920 0"/>
<text stroke="none" fill="white" font-size="16" x="18" y="74">
5.0
</text>
<text stroke="none" fill="white" font-size="16" x="10" y="32">
     
</text>
<path stroke="red" d="M460 23l46 0"/>
<text stroke="none" fill="white" font-size="16" x="516" y="32">
v(clk)+4
</text>
<path stroke="red" d="M50 182l92 0 0 -29 1 -12 0 -46 1 -12 0 -17 182 0M326 95l0 -29M326 95l1 12M327 153l0 -46M327 153l1 12M328 182l0 -17M328 182l182 0 0 -29 1 -12 0 -46 1 -12 0 -17 182 0M694 95l0 -29M694 95l1 12M695 153l0 -46M695 153l1 12M696 182l0 -17"/>
<path stroke="red" d="M696 182l274 0"/>
<path stroke="blue" d="M50 23l46 0"/>
<text stroke="none" fill="white" font-size="16" x="106" y="32">
v(d)+3
</text>
<path stroke="blue" d="M50 298l55 0 0 -17 1 -12 0 -46 1 -12 0 -29 274 0M381 199l0 -17M381 199l1 12M382 257l0 -46M382 257l1 12M383 298l0 -29M383 298l587 0"/>
<path stroke="#FFA500" d="M460 39l46 0"/>
<text stroke="none" fill="white" font-size="16" x="516" y="48">
v(m)+2
</text>
<path stroke="#FFA500" d="M50 414l92 0 0 -1 1 0 0 -1 1 -1 0 -7 1 -5 0 -25 1 -7 0 -26 1 -6 0 -20 1 -2 0 -3 1 0 0 -1 177 0 0 -1 1 -1 0 -6 1 0 0 -2 1 -1 182 0M511 300l0 -2M511 300l1 1M512 315l0 -14M512 315l1 1M513 319l0 -3M513 319l1 0M514 320l0 -1"/>
<path stroke="#FFA500" d="M514 320l180 0M694 321l0 -3 1 -3 0 -11 1 -1 0 -4 1 0 0 -1 273 0"/>
<path stroke="green" d="M50 39l46 0"/>
<text stroke="none" fill="white" font-size="16" x="106" y="48">
v(s)+1
</text>
<path stroke="green" d="M50 530l92 0 0 -1 1 0 0 -5 1 -3 0 -6M144 516l1 1M145 521l0 -4M145 521l1 1M146 523l0 -1M146 523l2 0M148 524l0 -1M148 524l178 0M326 527l0 -3M326 527l1 1M327 531l0 -3M327 531l1 0 0 -1 182 0 0 -1 1 0 0 -3 1 0 0 -2M512 525l182 0"/>
<path stroke="green" d="M694 528l0 -3M694 528l1 1M695 531l0 -2M695 531l1 0 0 -1 274 0"/>
<path stroke="#FFC0C5" d="M460 55l46 0"/>
<text stroke="none" fill="white" font-size="16" x="516" y="64">
v(q)
</text>
<path stroke="#FFC0C5" d="M50 646l920 0"/>
</svg>
