<?xml version="1.0" standalone="yes"?>
<!DOCTYPE svg PUBLIC "-//W3C//DTD SVG 1.1//EN"
 "http://www.w3.org/Graphics/SVG/1.1/DTD/svg11.dtd">
<svg xmlns="http://www.w3.org/2000/svg" version="1.1"
  width="100%" height="100%" viewBox="0 0 1024 768"
  style="fill: none; stroke-width: 3; font-family: Helvetica;
 font: Helvetica;
">

<!-- Creator: NGspice -->

<rect x="0" y="0" width="1024" height="768" fill="black" stroke="none"/>
<text stroke="none" fill="white" font-size="16" x="358" y="752">
time
</text>
<text stroke="none" fill="white" font-size="16" x="10" y="16">
tran6: Zoomed: CLK->Q Transition
</text>
<path stroke="white" stroke-width="3" stroke-dasharray="1,2" d="M50 704l0 -636"/>
<text stroke="none" fill="white" font-size="16" x="25" y="728">
480.0
</text>
<path stroke="white" stroke-width="3" stroke-dasharray="1,2" d="M182 704l0 -636"/>
<text stroke="none" fill="white" font-size="16" x="157" y="728">
490.0
</text>
<path stroke="white" stroke-width="3" stroke-dasharray="1,2" d="M314 704l0 -636"/>
<text stroke="none" fill="white" font-size="16" x="289" y="728">
500.0
</text>
<path stroke="white" stroke-width="3" stroke-dasharray="1,2" d="M446 704l0 -636"/>
<text stroke="none" fill="white" font-size="16" x="421" y="728">
510.0
</text>
<path stroke="white" stroke-width="3" stroke-dasharray="1,2" d="M578 704l0 -636"/>
<text stroke="none" fill="white" font-size="16" x="553" y="728">
520.0
</text>
<path stroke="white" stroke-width="3" stroke-dasharray="1,2" d="M710 704l0 -636"/>
<text stroke="none" fill="white" font-size="16" x="685" y="728">
530.0
</text>
<path stroke="white" stroke-width="3" stroke-dasharray="1,2" d="M842 704l0 -636"/>
<text stroke="none" fill="white" font-size="16" x="817" y="728">
540.0
</text>
<path stroke="white" stroke-width="3" stroke-dasharray="1,2" d="M974 704l0 -636"/>
<text stroke="none" fill="white" font-size="16" x="949" y="728">
550.0
</text>
<text stroke="none" fill="white" font-size="16" x="614" y="752">
ps
</text>
<path stroke="white" stroke-width="3" d="M50 704l924 0"/>
<text stroke="none" fill="white" font-size="16" x="18" y="712">
0.0
</text>
<path stroke="white" stroke-width="3" stroke-dasharray="1,2" d="M50 598l924 0"/>
<text stroke="none" fill="white" font-size="16" x="18" y="606">
0.5
</text>
<path stroke="white" stroke-width="3" stroke-dasharray="1,2" d="M50 492l924 0"/>
<text stroke="none" fill="white" font-size="16" x="18" y="500">
1.0
</text>
<path stroke="white" stroke-width="3" stroke-dasharray="1,2" d="M50 386l924 0"/>
<text stroke="none" fill="white" font-size="16" x="18" y="394">
1.5
</text>
<path stroke="white" stroke-width="3" stroke-dasharray="1,2" d="M50 280l924 0"/>
<text stroke="none" fill="white" font-size="16" x="18" y="288">
2.0
</text>
<path stroke="white" stroke-width="3" stroke-dasharray="1,2" d="M50 174l924 0"/>
<text stroke="none" fill="white" font-size="16" x="18" y="182">
2.5
</text>
<path stroke="white" stroke-width="3" stroke-dasharray="1,2" d="M50 68l924 0"/>
<text stroke="none" fill="white" font-size="16" x="18" y="76">
3.0
</text>
<text stroke="none" fill="white" font-size="16" x="10" y="32">
     
</text>
<path stroke="red" d="M462 23l46 0"/>
<text stroke="none" fill="white" font-size="16" x="518" y="32">
v(clk)+2
</text>
<path stroke="red" d="M50 280l264 0 0 -1 1 0 2 -4 2 -2 1 -3 1 -2 2 -2 2 -4 2 -2 2 -4 2 -3 3 -6 2 -2 2 -4 2 -2 1 -2 1 -3 2 -2 2 -4 2 -2 2 -4 2 -2 1 -3 1 -2 2 -2 2 -4 2 -2 2 -4 2 -3 3 -6 2 -2 2 -4 2 -2 1 -2 1 -3 2 -2 2 -4 2 -2 2 -4 2 -2 1 -3 1 -2"/>
<path stroke="red" d="M387 162l2 -2 2 -4 2 -2 2 -4 2 -3 3 -6 2 -2 2 -4 2 -2 1 -2 1 -3 2 -2 2 -4 2 -2 2 -4 2 -2 1 -3 1 -2 2 -2 2 -4 2 -2 2 -4 2 -3 3 -6 2 -2 2 -4 2 -2 1 -2 1 -3 2 -2 2 -4 1 -1 528 0"/>
<path stroke="blue" d="M50 23l46 0"/>
<text stroke="none" fill="white" font-size="16" x="106" y="32">
v(q)
</text>
<path stroke="blue" d="M50 610l924 0"/>
</svg>
