<?xml version="1.0" standalone="yes"?>
<!DOCTYPE svg PUBLIC "-//W3C//DTD SVG 1.1//EN"
 "http://www.w3.org/Graphics/SVG/1.1/DTD/svg11.dtd">
<svg xmlns="http://www.w3.org/2000/svg" version="1.1"
  width="100%" height="100%" viewBox="0 0 1024 768"
  style="fill: none; stroke-width: 3; font-family: Helvetica;
 font: Helvetica;
">

<!-- Creator: NGspice -->

<rect x="0" y="0" width="1024" height="768" fill="black" stroke="none"/>
<text stroke="none" fill="white" font-size="16" x="358" y="752">
Time (ns)
</text>
<text transform="rotate(-90, 20, 439)"  stroke="none" fill="white" font-size="16" x="20" y="439">
Voltage (V)
</text>
<text stroke="none" fill="white" font-size="16" x="10" y="16">
tran2: Zoomed: CLK->Q Rising Transition
</text>
<path stroke="white" stroke-width="3" stroke-dasharray="1,2" d="M75 704l0 -640"/>
<text stroke="none" fill="white" font-size="16" x="50" y="728">
490.0
</text>
<path stroke="white" stroke-width="3" stroke-dasharray="1,2" d="M224 704l0 -640"/>
<text stroke="none" fill="white" font-size="16" x="199" y="728">
495.0
</text>
<path stroke="white" stroke-width="3" stroke-dasharray="1,2" d="M373 704l0 -640"/>
<text stroke="none" fill="white" font-size="16" x="348" y="728">
500.0
</text>
<path stroke="white" stroke-width="3" stroke-dasharray="1,2" d="M522 704l0 -640"/>
<text stroke="none" fill="white" font-size="16" x="497" y="728">
505.0
</text>
<path stroke="white" stroke-width="3" stroke-dasharray="1,2" d="M671 704l0 -640"/>
<text stroke="none" fill="white" font-size="16" x="646" y="728">
510.0
</text>
<path stroke="white" stroke-width="3" stroke-dasharray="1,2" d="M820 704l0 -640"/>
<text stroke="none" fill="white" font-size="16" x="795" y="728">
515.0
</text>
<path stroke="white" stroke-width="3" stroke-dasharray="1,2" d="M969 704l0 -640"/>
<text stroke="none" fill="white" font-size="16" x="944" y="728">
520.0
</text>
<text stroke="none" fill="white" font-size="16" x="614" y="752">
ps
</text>
<path stroke="white" stroke-width="3" d="M75 704l894 0"/>
<text stroke="none" fill="white" font-size="16" x="43" y="712">
0.0
</text>
<path stroke="white" stroke-width="3" stroke-dasharray="1,2" d="M75 640l894 0"/>
<text stroke="none" fill="white" font-size="16" x="43" y="648">
0.1
</text>
<path stroke="white" stroke-width="3" stroke-dasharray="1,2" d="M75 576l894 0"/>
<text stroke="none" fill="white" font-size="16" x="43" y="584">
0.2
</text>
<path stroke="white" stroke-width="3" stroke-dasharray="1,2" d="M75 512l894 0"/>
<text stroke="none" fill="white" font-size="16" x="43" y="520">
0.3
</text>
<path stroke="white" stroke-width="3" stroke-dasharray="1,2" d="M75 448l894 0"/>
<text stroke="none" fill="white" font-size="16" x="43" y="456">
0.4
</text>
<path stroke="white" stroke-width="3" stroke-dasharray="1,2" d="M75 384l894 0"/>
<text stroke="none" fill="white" font-size="16" x="43" y="392">
0.5
</text>
<path stroke="white" stroke-width="3" stroke-dasharray="1,2" d="M75 320l894 0"/>
<text stroke="none" fill="white" font-size="16" x="43" y="328">
0.6
</text>
<path stroke="white" stroke-width="3" stroke-dasharray="1,2" d="M75 256l894 0"/>
<text stroke="none" fill="white" font-size="16" x="43" y="264">
0.7
</text>
<path stroke="white" stroke-width="3" stroke-dasharray="1,2" d="M75 192l894 0"/>
<text stroke="none" fill="white" font-size="16" x="43" y="200">
0.8
</text>
<path stroke="white" stroke-width="3" stroke-dasharray="1,2" d="M75 128l894 0"/>
<text stroke="none" fill="white" font-size="16" x="43" y="136">
0.9
</text>
<path stroke="white" stroke-width="3" stroke-dasharray="1,2" d="M75 64l894 0"/>
<text stroke="none" fill="white" font-size="16" x="43" y="72">
1.0
</text>
<text stroke="none" fill="white" font-size="16" x="10" y="32">
V
</text>
<path stroke="red" d="M447 23l44 0"/>
<text stroke="none" fill="white" font-size="16" x="501" y="32">
v(clk)
</text>
<path stroke="red" d="M75 704l298 0 0 -1 1 -1 1 -2 2 -6 6 -12 3 -7 3 -6 3 -7 6 -12 3 -7 3 -6 3 -7 6 -12 3 -7 3 -6 3 -7 6 -12 3 -7 3 -6 3 -7 6 -12 3 -7 3 -6 3 -7 6 -12 3 -7 3 -6 3 -7 6 -12 3 -7 3 -6 3 -7 6 -12 3 -7 3 -6 3 -7 6 -12 3 -7 3 -6 3 -7"/>
<path stroke="red" d="M512 406l6 -12 3 -7 2 -6 3 -7 6 -12 3 -7 3 -6 3 -7 6 -12 3 -7 3 -6 3 -7 6 -12 3 -7 3 -6 3 -7 6 -12 3 -7 3 -6 3 -7 6 -12 3 -7 3 -6 3 -7 6 -12 3 -7 3 -6 3 -7 6 -12 3 -7 3 -6 3 -7 6 -12 3 -7 3 -6 3 -7 6 -12 3 -7 3 -6 3 -7 6 -12"/>
<path stroke="red" d="M667 74l3 -7 1 -3 298 0"/>
<path stroke="blue" d="M75 23l44 0"/>
<text stroke="none" fill="white" font-size="16" x="129" y="32">
v(q)
</text>
<path stroke="blue" d="M75 388l317 0 3 -1 574 0"/>
</svg>
