<?xml version="1.0" standalone="yes"?>
<!DOCTYPE svg PUBLIC "-//W3C//DTD SVG 1.1//EN"
 "http://www.w3.org/Graphics/SVG/1.1/DTD/svg11.dtd">
<svg xmlns="http://www.w3.org/2000/svg" version="1.1"
  width="100%" height="100%" viewBox="0 0 1024 768"
  style="fill: none; font-family: Helvetica;
 font: Helvetica;
">

<!-- Creator: NGspice -->

<rect x="0" y="0" width="1024" height="768" fill="black" stroke="none"/>
<text stroke="none" fill="white" font-size="16" x="358" y="752">
time
</text>
<text stroke="none" fill="white" font-size="16" x="10" y="16">
tran1: Inverter Chain Test
</text>
<path stroke="white" d="M50 704l0 -640"/>
<text stroke="none" fill="white" font-size="16" x="35" y="728">
0.0
</text>
<path stroke="white" stroke-dasharray="1,2" d="M142 704l0 -640"/>
<text stroke="none" fill="white" font-size="16" x="127" y="728">
0.5
</text>
<path stroke="white" stroke-dasharray="1,2" d="M234 704l0 -640"/>
<text stroke="none" fill="white" font-size="16" x="219" y="728">
1.0
</text>
<path stroke="white" stroke-dasharray="1,2" d="M326 704l0 -640"/>
<text stroke="none" fill="white" font-size="16" x="311" y="728">
1.5
</text>
<path stroke="white" stroke-dasharray="1,2" d="M418 704l0 -640"/>
<text stroke="none" fill="white" font-size="16" x="403" y="728">
2.0
</text>
<path stroke="white" stroke-dasharray="1,2" d="M510 704l0 -640"/>
<text stroke="none" fill="white" font-size="16" x="495" y="728">
2.5
</text>
<path stroke="white" stroke-dasharray="1,2" d="M602 704l0 -640"/>
<text stroke="none" fill="white" font-size="16" x="587" y="728">
3.0
</text>
<path stroke="white" stroke-dasharray="1,2" d="M694 704l0 -640"/>
<text stroke="none" fill="white" font-size="16" x="679" y="728">
3.5
</text>
<path stroke="white" stroke-dasharray="1,2" d="M786 704l0 -640"/>
<text stroke="none" fill="white" font-size="16" x="771" y="728">
4.0
</text>
<path stroke="white" stroke-dasharray="1,2" d="M878 704l0 -640"/>
<text stroke="none" fill="white" font-size="16" x="863" y="728">
4.5
</text>
<path stroke="white" stroke-dasharray="1,2" d="M970 704l0 -640"/>
<text stroke="none" fill="white" font-size="16" x="955" y="728">
5.0
</text>
<text stroke="none" fill="white" font-size="16" x="614" y="752">
ns
</text>
<path stroke="white" d="M50 704l920 0"/>
<text stroke="none" fill="white" font-size="16" x="18" y="712">
0.0
</text>
<path stroke="white" stroke-dasharray="1,2" d="M50 624l920 0"/>
<text stroke="none" fill="white" font-size="16" x="18" y="632">
0.5
</text>
<path stroke="white" stroke-dasharray="1,2" d="M50 544l920 0"/>
<text stroke="none" fill="white" font-size="16" x="18" y="552">
1.0
</text>
<path stroke="white" stroke-dasharray="1,2" d="M50 464l920 0"/>
<text stroke="none" fill="white" font-size="16" x="18" y="472">
1.5
</text>
<path stroke="white" stroke-dasharray="1,2" d="M50 384l920 0"/>
<text stroke="none" fill="white" font-size="16" x="18" y="392">
2.0
</text>
<path stroke="white" stroke-dasharray="1,2" d="M50 304l920 0"/>
<text stroke="none" fill="white" font-size="16" x="18" y="312">
2.5
</text>
<path stroke="white" stroke-dasharray="1,2" d="M50 224l920 0"/>
<text stroke="none" fill="white" font-size="16" x="18" y="232">
3.0
</text>
<path stroke="white" stroke-dasharray="1,2" d="M50 144l920 0"/>
<text stroke="none" fill="white" font-size="16" x="18" y="152">
3.5
</text>
<path stroke="white" stroke-dasharray="1,2" d="M50 64l920 0"/>
<text stroke="none" fill="white" font-size="16" x="18" y="72">
4.0
</text>
<text stroke="none" fill="white" font-size="16" x="10" y="32">
     
</text>
<path stroke="red" d="M460 23l46 0"/>
<text stroke="none" fill="white" font-size="16" x="516" y="32">
v(in)+3
</text>
<path stroke="red" d="M50 224l184 0 0 -42 1 -2 0 -86 1 -2 0 -28 366 0M602 106l0 -42M602 106l1 2M603 194l0 -86M603 194l1 2M604 224l0 -28M604 224l366 0"/>
<path stroke="blue" d="M50 23l46 0"/>
<text stroke="none" fill="white" font-size="16" x="106" y="32">
v(a)+2
</text>
<path stroke="blue" d="M50 371l184 0 0 -2 1 0 0 -1 1 0M236 371l0 -3M236 371l366 0M602 374l0 -3M602 374l2 0 0 -2 1 0 0 -1 365 0"/>
<path stroke="#FFA500" d="M460 39l46 0"/>
<text stroke="none" fill="white" font-size="16" x="516" y="48">
v(b)+1
</text>
<path stroke="#FFA500" d="M50 434l920 0"/>
<path stroke="green" d="M50 39l46 0"/>
<text stroke="none" fill="white" font-size="16" x="106" y="48">
v(out)
</text>
<path stroke="green" d="M50 633l920 0"/>
</svg>
