<?xml version="1.0" standalone="yes"?>
<!DOCTYPE svg PUBLIC "-//W3C//DTD SVG 1.1//EN"
 "http://www.w3.org/Graphics/SVG/1.1/DTD/svg11.dtd">
<svg xmlns="http://www.w3.org/2000/svg" version="1.1"
  width="100%" height="100%" viewBox="0 0 1024 768"
  style="fill: none; font-family: Helvetica;
 font: Helvetica;
">

<!-- Creator: NGspice -->

<rect x="0" y="0" width="1024" height="768" fill="black" stroke="none"/>
<text stroke="none" fill="white" font-size="16" x="358" y="752">
time
</text>
<text stroke="none" fill="white" font-size="16" x="10" y="16">
tran8: DFF
</text>
<path stroke="white" d="M50 704l0 -638"/>
<text stroke="none" fill="white" font-size="16" x="35" y="728">
0.0
</text>
<path stroke="white" stroke-dasharray="1,2" d="M204 704l0 -638"/>
<text stroke="none" fill="white" font-size="16" x="189" y="728">
0.5
</text>
<path stroke="white" stroke-dasharray="1,2" d="M358 704l0 -638"/>
<text stroke="none" fill="white" font-size="16" x="343" y="728">
1.0
</text>
<path stroke="white" stroke-dasharray="1,2" d="M512 704l0 -638"/>
<text stroke="none" fill="white" font-size="16" x="497" y="728">
1.5
</text>
<path stroke="white" stroke-dasharray="1,2" d="M666 704l0 -638"/>
<text stroke="none" fill="white" font-size="16" x="651" y="728">
2.0
</text>
<path stroke="white" stroke-dasharray="1,2" d="M820 704l0 -638"/>
<text stroke="none" fill="white" font-size="16" x="805" y="728">
2.5
</text>
<path stroke="white" stroke-dasharray="1,2" d="M974 704l0 -638"/>
<text stroke="none" fill="white" font-size="16" x="959" y="728">
3.0
</text>
<text stroke="none" fill="white" font-size="16" x="614" y="752">
ns
</text>
<path stroke="white" stroke-dasharray="1,2" d="M50 704l924 0"/>
<text stroke="none" fill="white" font-size="16" x="8" y="712">
-0.5
</text>
<path stroke="white" d="M50 646l924 0"/>
<text stroke="none" fill="white" font-size="16" x="18" y="654">
0.0
</text>
<path stroke="white" stroke-dasharray="1,2" d="M50 588l924 0"/>
<text stroke="none" fill="white" font-size="16" x="18" y="596">
0.5
</text>
<path stroke="white" stroke-dasharray="1,2" d="M50 530l924 0"/>
<text stroke="none" fill="white" font-size="16" x="18" y="538">
1.0
</text>
<path stroke="white" stroke-dasharray="1,2" d="M50 472l924 0"/>
<text stroke="none" fill="white" font-size="16" x="18" y="480">
1.5
</text>
<path stroke="white" stroke-dasharray="1,2" d="M50 414l924 0"/>
<text stroke="none" fill="white" font-size="16" x="18" y="422">
2.0
</text>
<path stroke="white" stroke-dasharray="1,2" d="M50 356l924 0"/>
<text stroke="none" fill="white" font-size="16" x="18" y="364">
2.5
</text>
<path stroke="white" stroke-dasharray="1,2" d="M50 298l924 0"/>
<text stroke="none" fill="white" font-size="16" x="18" y="306">
3.0
</text>
<path stroke="white" stroke-dasharray="1,2" d="M50 240l924 0"/>
<text stroke="none" fill="white" font-size="16" x="18" y="248">
3.5
</text>
<path stroke="white" stroke-dasharray="1,2" d="M50 182l924 0"/>
<text stroke="none" fill="white" font-size="16" x="18" y="190">
4.0
</text>
<path stroke="white" stroke-dasharray="1,2" d="M50 124l924 0"/>
<text stroke="none" fill="white" font-size="16" x="18" y="132">
4.5
</text>
<path stroke="white" stroke-dasharray="1,2" d="M50 66l924 0"/>
<text stroke="none" fill="white" font-size="16" x="18" y="74">
5.0
</text>
<text stroke="none" fill="white" font-size="16" x="10" y="32">
     
</text>
<path stroke="red" d="M462 23l46 0"/>
<text stroke="none" fill="white" font-size="16" x="518" y="32">
v(clk)+4
</text>
<path stroke="red" d="M50 182l77 0 0 -17 1 -24 1 -46 1 -29 74 0M204 83l0 -17M204 83l1 24 1 46 1 29 74 0 0 -17 1 -24 1 -46 1 -29 74 0M358 83l0 -17M358 83l1 24 1 46 1 29 74 0 0 -17 1 -24 1 -46 1 -29 74 0M512 83l0 -17M512 83l1 24 1 46 1 29 74 0"/>
<path stroke="red" d="M589 182l0 -17 1 -24 1 -46 1 -29 74 0M666 83l0 -17M666 83l1 24 1 46 1 29 74 0 0 -17 1 -24 1 -46 1 -29 74 0M820 83l0 -17M820 83l1 24 1 46 1 29 74 0 0 -17 1 -24 1 -46 1 -29 74 0"/>
<path stroke="blue" d="M50 23l46 0"/>
<text stroke="none" fill="white" font-size="16" x="106" y="32">
v(d)+2
</text>
<path stroke="blue" d="M50 414l31 0 0 -17 1 -24 1 -46 1 -29 185 0M269 315l0 -17M269 315l1 24 1 46 1 29 178 0 1 -6 0 -35 2 -46 0 -29 185 0M638 304l0 -6M638 304l1 11M639 339l0 -24M639 339l2 46M641 414l0 -29M641 414l179 0 0 -17 1 -24 1 -46 1 -29"/>
<path stroke="blue" d="M823 298l151 0"/>
<path stroke="#FFA500" d="M462 39l46 0"/>
<text stroke="none" fill="white" font-size="16" x="518" y="48">
v(q)
</text>
<path stroke="#FFA500" d="M50 592l72 0 1 1 6 0 1 1 1 0 1 -2 2 -3 1 -4 2 -6 2 -5 1 -5 2 -5 1 -4 2 -5 1 -3 3 -6 2 -3 1 -2 3 -3 2 -1 2 -2 1 0 2 -1 1 -1 2 0 1 -1 2 0 1 -1 8 0 2 -1 26 0 1 1 2 0 0 -1 75 0 1 -1 10 0 2 1 1 2 2 3 1 4 2 5 1 6 2 6 1 6 2 7"/>
<path stroke="#FFA500" d="M308 569l1 7 4 14 1 7 2 6 1 7 2 6 1 5 2 5 1 4 2 3 1 3 5 5 2 1 1 1 2 1 1 0 2 1 4 0 2 1 248 0M593 647l0 -1M593 647l3 0 1 -2 2 -3 2 -4 1 -5 2 -6 1 -6 2 -6 1 -6 2 -6 1 -6 2 -6 1 -6 2 -6 1 -6 4 -10 1 -4 2 -4 1 -4 2 -3 1 -3"/>
<path stroke="#FFA500" d="M628 545l2 -2 1 -2 2 -2 1 -2 4 -2 1 -1 2 0 0 -1 1 0 2 -1 3 0 1 -1 8 0 2 -1 9 0 1 1 2 0 1 -1 74 0 1 -1 10 0 2 1 1 2 2 3 1 4 2 5 1 5 2 6 1 7 2 6 1 7 4 14 1 7 2 7 1 6 2 6 1 6 2 5 1 4 2 3 1 3 5 5 2 1 1 1 2 1 1 0 2 1 4 0"/>
<path stroke="#FFA500" d="M805 645l2 1 94 0M901 647l0 -1M901 647l3 0 1 -2 2 -3 2 -4 1 -5 2 -6 1 -6 2 -6 1 -6 2 -6 1 -6 2 -6 1 -6 2 -6 1 -6 4 -10 1 -4 2 -4 1 -4 2 -3 1 -3 2 -2 1 -2 2 -2 1 -2 4 -2 1 -1 2 0 1 -1 2 -1 3 0 1 -1 8 0 2 -1 8 0"/>
</svg>
