<?xml version="1.0" standalone="yes"?>
<!DOCTYPE svg PUBLIC "-//W3C//DTD SVG 1.1//EN"
 "http://www.w3.org/Graphics/SVG/1.1/DTD/svg11.dtd">
<svg xmlns="http://www.w3.org/2000/svg" version="1.1"
  width="100%" height="100%" viewBox="0 0 1024 768"
  style="fill: none; font-family: Helvetica;
 font: Helvetica;
">

<!-- Creator: NGspice -->

<rect x="0" y="0" width="1024" height="768" fill="black" stroke="none"/>
<text stroke="none" fill="white" font-size="16" x="358" y="752">
time
</text>
<text stroke="none" fill="white" font-size="16" x="10" y="16">
tran1: DFF Delay Measurement
</text>
<path stroke="white" d="M50 704l0 -640"/>
<text stroke="none" fill="white" font-size="16" x="35" y="728">
0.0
</text>
<path stroke="white" stroke-dasharray="1,2" d="M142 704l0 -640"/>
<text stroke="none" fill="white" font-size="16" x="127" y="728">
0.5
</text>
<path stroke="white" stroke-dasharray="1,2" d="M234 704l0 -640"/>
<text stroke="none" fill="white" font-size="16" x="219" y="728">
1.0
</text>
<path stroke="white" stroke-dasharray="1,2" d="M326 704l0 -640"/>
<text stroke="none" fill="white" font-size="16" x="311" y="728">
1.5
</text>
<path stroke="white" stroke-dasharray="1,2" d="M418 704l0 -640"/>
<text stroke="none" fill="white" font-size="16" x="403" y="728">
2.0
</text>
<path stroke="white" stroke-dasharray="1,2" d="M510 704l0 -640"/>
<text stroke="none" fill="white" font-size="16" x="495" y="728">
2.5
</text>
<path stroke="white" stroke-dasharray="1,2" d="M602 704l0 -640"/>
<text stroke="none" fill="white" font-size="16" x="587" y="728">
3.0
</text>
<path stroke="white" stroke-dasharray="1,2" d="M694 704l0 -640"/>
<text stroke="none" fill="white" font-size="16" x="679" y="728">
3.5
</text>
<path stroke="white" stroke-dasharray="1,2" d="M786 704l0 -640"/>
<text stroke="none" fill="white" font-size="16" x="771" y="728">
4.0
</text>
<path stroke="white" stroke-dasharray="1,2" d="M878 704l0 -640"/>
<text stroke="none" fill="white" font-size="16" x="863" y="728">
4.5
</text>
<path stroke="white" stroke-dasharray="1,2" d="M970 704l0 -640"/>
<text stroke="none" fill="white" font-size="16" x="955" y="728">
5.0
</text>
<text stroke="none" fill="white" font-size="16" x="614" y="752">
ns
</text>
<path stroke="white" d="M50 704l920 0"/>
<text stroke="none" fill="white" font-size="16" x="18" y="712">
0.0
</text>
<path stroke="white" stroke-dasharray="1,2" d="M50 640l920 0"/>
<text stroke="none" fill="white" font-size="16" x="18" y="648">
0.5
</text>
<path stroke="white" stroke-dasharray="1,2" d="M50 576l920 0"/>
<text stroke="none" fill="white" font-size="16" x="18" y="584">
1.0
</text>
<path stroke="white" stroke-dasharray="1,2" d="M50 512l920 0"/>
<text stroke="none" fill="white" font-size="16" x="18" y="520">
1.5
</text>
<path stroke="white" stroke-dasharray="1,2" d="M50 448l920 0"/>
<text stroke="none" fill="white" font-size="16" x="18" y="456">
2.0
</text>
<path stroke="white" stroke-dasharray="1,2" d="M50 384l920 0"/>
<text stroke="none" fill="white" font-size="16" x="18" y="392">
2.5
</text>
<path stroke="white" stroke-dasharray="1,2" d="M50 320l920 0"/>
<text stroke="none" fill="white" font-size="16" x="18" y="328">
3.0
</text>
<path stroke="white" stroke-dasharray="1,2" d="M50 256l920 0"/>
<text stroke="none" fill="white" font-size="16" x="18" y="264">
3.5
</text>
<path stroke="white" stroke-dasharray="1,2" d="M50 192l920 0"/>
<text stroke="none" fill="white" font-size="16" x="18" y="200">
4.0
</text>
<path stroke="white" stroke-dasharray="1,2" d="M50 128l920 0"/>
<text stroke="none" fill="white" font-size="16" x="18" y="136">
4.5
</text>
<path stroke="white" stroke-dasharray="1,2" d="M50 64l920 0"/>
<text stroke="none" fill="white" font-size="16" x="18" y="72">
5.0
</text>
<text stroke="none" fill="white" font-size="16" x="10" y="32">
     
</text>
<path stroke="red" d="M460 23l46 0"/>
<text stroke="none" fill="white" font-size="16" x="516" y="32">
v(clk)+4
</text>
<path stroke="red" d="M50 192l184 0 0 -18 1 -20 0 -52 1 -25 0 -13 182 0M418 82l0 -18M418 82l1 20M419 154l0 -52M419 154l1 25M420 192l0 -13M420 192l182 0 0 -18 1 -20 0 -52 1 -25 0 -13 182 0M786 82l0 -18M786 82l1 20M787 154l0 -52M787 154l1 25M788 192l0 -13"/>
<path stroke="red" d="M788 192l182 0"/>
<path stroke="blue" d="M50 23l46 0"/>
<text stroke="none" fill="white" font-size="16" x="106" y="32">
v(d)+2
</text>
<path stroke="blue" d="M50 448l18 0 0 -3 1 -5 0 -56 1 -26 0 -38 440 0M510 338l0 -18M510 338l1 20M511 410l0 -52M511 410l1 25M512 448l0 -13M512 448l458 0"/>
<path stroke="#FFA500" d="M460 39l46 0"/>
<text stroke="none" fill="white" font-size="16" x="516" y="48">
v(q)
</text>
<path stroke="#FFA500" d="M50 576l554 0M604 580l0 -4M604 580l1 6M605 600l0 -14M605 600l1 7M606 615l0 -8M606 615l1 8M607 638l0 -15M607 638l1 7M608 658l0 -13M608 658l1 6M609 670l0 -6M609 670l1 4M610 683l0 -9M610 683l1 3M611 691l0 -5M611 691l1 2"/>
<path stroke="#FFA500" d="M612 696l0 -3M612 696l1 2M613 699l0 -1M613 699l1 1M614 701l0 -1M614 701l1 0M615 702l0 -1M615 702l1 1 2 0M618 704l0 -1M618 704l352 0"/>
</svg>
