<?xml version="1.0" standalone="yes"?>
<!DOCTYPE svg PUBLIC "-//W3C//DTD SVG 1.1//EN"
 "http://www.w3.org/Graphics/SVG/1.1/DTD/svg11.dtd">
<svg xmlns="http://www.w3.org/2000/svg" version="1.1"
  width="100%" height="100%" viewBox="0 0 1024 768"
  style="fill: none; font-family: Helvetica;
 font: Helvetica;
">

<!-- Creator: NGspice -->

<rect x="0" y="0" width="1024" height="768" fill="black" stroke="none"/>
<text stroke="none" fill="white" font-size="16" x="358" y="752">
time
</text>
<text stroke="none" fill="white" font-size="16" x="10" y="16">
tran3: Corrected DFF
</text>
<path stroke="white" d="M50 704l0 -640"/>
<text stroke="none" fill="white" font-size="16" x="35" y="728">
0.0
</text>
<path stroke="white" stroke-dasharray="1,2" d="M142 704l0 -640"/>
<text stroke="none" fill="white" font-size="16" x="127" y="728">
0.2
</text>
<path stroke="white" stroke-dasharray="1,2" d="M234 704l0 -640"/>
<text stroke="none" fill="white" font-size="16" x="219" y="728">
0.4
</text>
<path stroke="white" stroke-dasharray="1,2" d="M326 704l0 -640"/>
<text stroke="none" fill="white" font-size="16" x="311" y="728">
0.6
</text>
<path stroke="white" stroke-dasharray="1,2" d="M418 704l0 -640"/>
<text stroke="none" fill="white" font-size="16" x="403" y="728">
0.8
</text>
<path stroke="white" stroke-dasharray="1,2" d="M510 704l0 -640"/>
<text stroke="none" fill="white" font-size="16" x="495" y="728">
1.0
</text>
<path stroke="white" stroke-dasharray="1,2" d="M602 704l0 -640"/>
<text stroke="none" fill="white" font-size="16" x="587" y="728">
1.2
</text>
<path stroke="white" stroke-dasharray="1,2" d="M694 704l0 -640"/>
<text stroke="none" fill="white" font-size="16" x="679" y="728">
1.4
</text>
<path stroke="white" stroke-dasharray="1,2" d="M786 704l0 -640"/>
<text stroke="none" fill="white" font-size="16" x="771" y="728">
1.6
</text>
<path stroke="white" stroke-dasharray="1,2" d="M878 704l0 -640"/>
<text stroke="none" fill="white" font-size="16" x="863" y="728">
1.8
</text>
<path stroke="white" stroke-dasharray="1,2" d="M970 704l0 -640"/>
<text stroke="none" fill="white" font-size="16" x="955" y="728">
2.0
</text>
<text stroke="none" fill="white" font-size="16" x="614" y="752">
ns
</text>
<path stroke="white" d="M50 704l920 0"/>
<text stroke="none" fill="white" font-size="16" x="8" y="712">
-0.0
</text>
<path stroke="white" stroke-dasharray="1,2" d="M50 640l920 0"/>
<text stroke="none" fill="white" font-size="16" x="18" y="648">
0.5
</text>
<path stroke="white" stroke-dasharray="1,2" d="M50 576l920 0"/>
<text stroke="none" fill="white" font-size="16" x="18" y="584">
1.0
</text>
<path stroke="white" stroke-dasharray="1,2" d="M50 512l920 0"/>
<text stroke="none" fill="white" font-size="16" x="18" y="520">
1.5
</text>
<path stroke="white" stroke-dasharray="1,2" d="M50 448l920 0"/>
<text stroke="none" fill="white" font-size="16" x="18" y="456">
2.0
</text>
<path stroke="white" stroke-dasharray="1,2" d="M50 384l920 0"/>
<text stroke="none" fill="white" font-size="16" x="18" y="392">
2.5
</text>
<path stroke="white" stroke-dasharray="1,2" d="M50 320l920 0"/>
<text stroke="none" fill="white" font-size="16" x="18" y="328">
3.0
</text>
<path stroke="white" stroke-dasharray="1,2" d="M50 256l920 0"/>
<text stroke="none" fill="white" font-size="16" x="18" y="264">
3.5
</text>
<path stroke="white" stroke-dasharray="1,2" d="M50 192l920 0"/>
<text stroke="none" fill="white" font-size="16" x="18" y="200">
4.0
</text>
<path stroke="white" stroke-dasharray="1,2" d="M50 128l920 0"/>
<text stroke="none" fill="white" font-size="16" x="18" y="136">
4.5
</text>
<path stroke="white" stroke-dasharray="1,2" d="M50 64l920 0"/>
<text stroke="none" fill="white" font-size="16" x="18" y="72">
5.0
</text>
<text stroke="none" fill="white" font-size="16" x="10" y="32">
     
</text>
<path stroke="red" d="M460 23l46 0"/>
<text stroke="none" fill="white" font-size="16" x="516" y="32">
v(clk)+4
</text>
<path stroke="red" d="M50 192l230 0 0 -8 1 -10 0 -20 2 -52 1 -25 1 -13 110 0M395 72l0 -8M395 72l1 10M396 102l0 -20M396 102l2 52 1 25 1 13 110 0 0 -8 1 -10 0 -20 2 -52 1 -25 1 -13 110 0M625 72l0 -8M625 72l1 10M626 102l0 -20M626 102l2 52 1 25 1 13"/>
<path stroke="red" d="M630 192l110 0 0 -8 1 -10 0 -20 2 -52 1 -25 1 -13 110 0M855 72l0 -8M855 72l1 10M856 102l0 -20M856 102l2 52 1 25 1 13 110 0"/>
<path stroke="blue" d="M50 23l46 0"/>
<text stroke="none" fill="white" font-size="16" x="106" y="32">
v(d)+2
</text>
<path stroke="blue" d="M50 448l92 0 0 -8 1 -10 0 -20 2 -52 1 -25 1 -13 455 0M602 328l0 -8M602 328l1 10M603 358l0 -20M603 358l2 52 1 25 1 13 363 0"/>
<path stroke="#FFA500" d="M460 39l46 0"/>
<text stroke="none" fill="white" font-size="16" x="516" y="48">
v(q)
</text>
<path stroke="#FFA500" d="M50 576l691 0 1 -1 1 0 2 2M745 582l0 -5M745 582l1 7 1 14 1 18 1 21 1 22 1 17 1 11M752 698l0 -6M752 698l1 3 3 3 214 0"/>
</svg>
