<?xml version="1.0" standalone="yes"?>
<!DOCTYPE svg PUBLIC "-//W3C//DTD SVG 1.1//EN"
 "http://www.w3.org/Graphics/SVG/1.1/DTD/svg11.dtd">
<svg xmlns="http://www.w3.org/2000/svg" version="1.1"
  width="100%" height="100%" viewBox="0 0 1024 768"
  style="fill: none; font-family: Helvetica;
 font: Helvetica;
">

<!-- Creator: NGspice -->

<rect x="0" y="0" width="1024" height="768" fill="black" stroke="none"/>
<text stroke="none" fill="white" font-size="16" x="358" y="752">
time
</text>
<text stroke="none" fill="white" font-size="16" x="10" y="16">
tran2: Ultra-Fast DFF
</text>
<path stroke="white" d="M50 704l0 -638"/>
<text stroke="none" fill="white" font-size="16" x="35" y="728">
0.0
</text>
<path stroke="white" stroke-dasharray="1,2" d="M127 704l0 -638"/>
<text stroke="none" fill="white" font-size="16" x="112" y="728">
0.1
</text>
<path stroke="white" stroke-dasharray="1,2" d="M204 704l0 -638"/>
<text stroke="none" fill="white" font-size="16" x="189" y="728">
0.2
</text>
<path stroke="white" stroke-dasharray="1,2" d="M281 704l0 -638"/>
<text stroke="none" fill="white" font-size="16" x="266" y="728">
0.3
</text>
<path stroke="white" stroke-dasharray="1,2" d="M358 704l0 -638"/>
<text stroke="none" fill="white" font-size="16" x="343" y="728">
0.4
</text>
<path stroke="white" stroke-dasharray="1,2" d="M435 704l0 -638"/>
<text stroke="none" fill="white" font-size="16" x="420" y="728">
0.5
</text>
<path stroke="white" stroke-dasharray="1,2" d="M512 704l0 -638"/>
<text stroke="none" fill="white" font-size="16" x="497" y="728">
0.6
</text>
<path stroke="white" stroke-dasharray="1,2" d="M589 704l0 -638"/>
<text stroke="none" fill="white" font-size="16" x="574" y="728">
0.7
</text>
<path stroke="white" stroke-dasharray="1,2" d="M666 704l0 -638"/>
<text stroke="none" fill="white" font-size="16" x="651" y="728">
0.8
</text>
<path stroke="white" stroke-dasharray="1,2" d="M743 704l0 -638"/>
<text stroke="none" fill="white" font-size="16" x="728" y="728">
0.9
</text>
<path stroke="white" stroke-dasharray="1,2" d="M820 704l0 -638"/>
<text stroke="none" fill="white" font-size="16" x="805" y="728">
1.0
</text>
<path stroke="white" stroke-dasharray="1,2" d="M897 704l0 -638"/>
<text stroke="none" fill="white" font-size="16" x="882" y="728">
1.1
</text>
<path stroke="white" stroke-dasharray="1,2" d="M974 704l0 -638"/>
<text stroke="none" fill="white" font-size="16" x="959" y="728">
1.2
</text>
<text stroke="none" fill="white" font-size="16" x="614" y="752">
ns
</text>
<path stroke="white" stroke-dasharray="1,2" d="M50 704l924 0"/>
<text stroke="none" fill="white" font-size="16" x="8" y="712">
-0.5
</text>
<path stroke="white" d="M50 646l924 0"/>
<text stroke="none" fill="white" font-size="16" x="18" y="654">
0.0
</text>
<path stroke="white" stroke-dasharray="1,2" d="M50 588l924 0"/>
<text stroke="none" fill="white" font-size="16" x="18" y="596">
0.5
</text>
<path stroke="white" stroke-dasharray="1,2" d="M50 530l924 0"/>
<text stroke="none" fill="white" font-size="16" x="18" y="538">
1.0
</text>
<path stroke="white" stroke-dasharray="1,2" d="M50 472l924 0"/>
<text stroke="none" fill="white" font-size="16" x="18" y="480">
1.5
</text>
<path stroke="white" stroke-dasharray="1,2" d="M50 414l924 0"/>
<text stroke="none" fill="white" font-size="16" x="18" y="422">
2.0
</text>
<path stroke="white" stroke-dasharray="1,2" d="M50 356l924 0"/>
<text stroke="none" fill="white" font-size="16" x="18" y="364">
2.5
</text>
<path stroke="white" stroke-dasharray="1,2" d="M50 298l924 0"/>
<text stroke="none" fill="white" font-size="16" x="18" y="306">
3.0
</text>
<path stroke="white" stroke-dasharray="1,2" d="M50 240l924 0"/>
<text stroke="none" fill="white" font-size="16" x="18" y="248">
3.5
</text>
<path stroke="white" stroke-dasharray="1,2" d="M50 182l924 0"/>
<text stroke="none" fill="white" font-size="16" x="18" y="190">
4.0
</text>
<path stroke="white" stroke-dasharray="1,2" d="M50 124l924 0"/>
<text stroke="none" fill="white" font-size="16" x="18" y="132">
4.5
</text>
<path stroke="white" stroke-dasharray="1,2" d="M50 66l924 0"/>
<text stroke="none" fill="white" font-size="16" x="18" y="74">
5.0
</text>
<text stroke="none" fill="white" font-size="16" x="10" y="32">
     
</text>
<path stroke="red" d="M462 23l46 0"/>
<text stroke="none" fill="white" font-size="16" x="518" y="32">
v(clk)+4
</text>
<path stroke="red" d="M50 182l77 0 0 -7 1 -9 0 -19 2 -46 0 -23 1 -12 185 0M316 82l0 -16M316 82l1 19 1 23M318 147l0 -23M318 147l1 23M319 182l0 -12M319 182l193 0 0 -7 1 -9 0 -19 2 -46 0 -23 1 -12 185 0M701 82l0 -16M701 82l1 19 1 23M703 147l0 -23"/>
<path stroke="red" d="M703 147l1 23M704 182l0 -12M704 182l193 0 0 -7 1 -9 0 -19 2 -46 0 -23 1 -12 73 0"/>
<path stroke="blue" d="M50 23l46 0"/>
<text stroke="none" fill="white" font-size="16" x="106" y="32">
v(d)+2
</text>
<path stroke="blue" d="M50 414l39 0 0 -16 1 -19 0 -23 2 -46 0 -12 381 0 1 2M474 314l0 -14M474 314l1 19M475 356l0 -23M475 356l2 46M477 414l0 -12M477 414l497 0"/>
<path stroke="#FFA500" d="M462 39l46 0"/>
<text stroke="none" fill="white" font-size="16" x="518" y="48">
v(q)
</text>
<path stroke="#FFA500" d="M50 646l44 0 1 1 2 -2 0 -1 2 -6 1 -2 0 -3 1 -3 1 -2 1 -3 1 -2 0 -2 1 -3 2 -4 0 -2 1 -3 2 -4 0 -3 2 -4 1 -3 1 -2 0 -3 3 -9 0 -3 1 -3 1 -4 1 -3 0 -4 1 -4 1 -3 2 -8 0 -3 1 -3 2 -4 0 -2 1 0 0 -2 1 -1 1 0 0 -1 1 0 0 -1 2 0"/>
<path stroke="#FFA500" d="M133 532l1 -1 3 0 0 -1 362 0M499 531l0 -1M499 531l3 3M502 536l0 -2M502 536l3 9M505 550l0 -5M505 550l1 5 1 6 2 16M509 585l0 -8M509 585l2 20 1 9M512 620l0 -6M512 620l1 3M513 628l0 -5M513 628l1 5 1 3M515 639l0 -3M515 639l1 1"/>
<path stroke="#FFA500" d="M516 641l0 -1M516 641l3 3M519 645l0 -1M519 645l2 0 1 1 452 0"/>
</svg>
