<?xml version="1.0" standalone="yes"?>
<!DOCTYPE svg PUBLIC "-//W3C//DTD SVG 1.1//EN"
 "http://www.w3.org/Graphics/SVG/1.1/DTD/svg11.dtd">
<svg xmlns="http://www.w3.org/2000/svg" version="1.1"
  width="100%" height="100%" viewBox="0 0 1024 768"
  style="fill: none; font-family: Helvetica;
 font: Helvetica;
">

<!-- Creator: NGspice -->

<rect x="0" y="0" width="1024" height="768" fill="black" stroke="none"/>
<text stroke="none" fill="white" font-size="16" x="358" y="752">
time
</text>
<text stroke="none" fill="white" font-size="16" x="10" y="16">
tran1: nand2
</text>
<path stroke="white" d="M50 704l0 -638"/>
<text stroke="none" fill="white" font-size="16" x="35" y="728">
0.0
</text>
<path stroke="white" stroke-dasharray="1,2" d="M142 704l0 -638"/>
<text stroke="none" fill="white" font-size="16" x="127" y="728">
0.5
</text>
<path stroke="white" stroke-dasharray="1,2" d="M234 704l0 -638"/>
<text stroke="none" fill="white" font-size="16" x="219" y="728">
1.0
</text>
<path stroke="white" stroke-dasharray="1,2" d="M326 704l0 -638"/>
<text stroke="none" fill="white" font-size="16" x="311" y="728">
1.5
</text>
<path stroke="white" stroke-dasharray="1,2" d="M418 704l0 -638"/>
<text stroke="none" fill="white" font-size="16" x="403" y="728">
2.0
</text>
<path stroke="white" stroke-dasharray="1,2" d="M510 704l0 -638"/>
<text stroke="none" fill="white" font-size="16" x="495" y="728">
2.5
</text>
<path stroke="white" stroke-dasharray="1,2" d="M602 704l0 -638"/>
<text stroke="none" fill="white" font-size="16" x="587" y="728">
3.0
</text>
<path stroke="white" stroke-dasharray="1,2" d="M694 704l0 -638"/>
<text stroke="none" fill="white" font-size="16" x="679" y="728">
3.5
</text>
<path stroke="white" stroke-dasharray="1,2" d="M786 704l0 -638"/>
<text stroke="none" fill="white" font-size="16" x="771" y="728">
4.0
</text>
<path stroke="white" stroke-dasharray="1,2" d="M878 704l0 -638"/>
<text stroke="none" fill="white" font-size="16" x="863" y="728">
4.5
</text>
<path stroke="white" stroke-dasharray="1,2" d="M970 704l0 -638"/>
<text stroke="none" fill="white" font-size="16" x="955" y="728">
5.0
</text>
<text stroke="none" fill="white" font-size="16" x="614" y="752">
ns
</text>
<path stroke="white" stroke-dasharray="1,2" d="M50 704l920 0"/>
<text stroke="none" fill="white" font-size="16" x="8" y="712">
-0.5
</text>
<path stroke="white" d="M50 646l920 0"/>
<text stroke="none" fill="white" font-size="16" x="18" y="654">
0.0
</text>
<path stroke="white" stroke-dasharray="1,2" d="M50 588l920 0"/>
<text stroke="none" fill="white" font-size="16" x="18" y="596">
0.5
</text>
<path stroke="white" stroke-dasharray="1,2" d="M50 530l920 0"/>
<text stroke="none" fill="white" font-size="16" x="18" y="538">
1.0
</text>
<path stroke="white" stroke-dasharray="1,2" d="M50 472l920 0"/>
<text stroke="none" fill="white" font-size="16" x="18" y="480">
1.5
</text>
<path stroke="white" stroke-dasharray="1,2" d="M50 414l920 0"/>
<text stroke="none" fill="white" font-size="16" x="18" y="422">
2.0
</text>
<path stroke="white" stroke-dasharray="1,2" d="M50 356l920 0"/>
<text stroke="none" fill="white" font-size="16" x="18" y="364">
2.5
</text>
<path stroke="white" stroke-dasharray="1,2" d="M50 298l920 0"/>
<text stroke="none" fill="white" font-size="16" x="18" y="306">
3.0
</text>
<path stroke="white" stroke-dasharray="1,2" d="M50 240l920 0"/>
<text stroke="none" fill="white" font-size="16" x="18" y="248">
3.5
</text>
<path stroke="white" stroke-dasharray="1,2" d="M50 182l920 0"/>
<text stroke="none" fill="white" font-size="16" x="18" y="190">
4.0
</text>
<path stroke="white" stroke-dasharray="1,2" d="M50 124l920 0"/>
<text stroke="none" fill="white" font-size="16" x="18" y="132">
4.5
</text>
<path stroke="white" stroke-dasharray="1,2" d="M50 66l920 0"/>
<text stroke="none" fill="white" font-size="16" x="18" y="74">
5.0
</text>
<text stroke="none" fill="white" font-size="16" x="10" y="32">
     
</text>
<path stroke="red" d="M460 23l46 0"/>
<text stroke="none" fill="white" font-size="16" x="516" y="32">
v(a)+4
</text>
<path stroke="red" d="M50 182l368 0 0 -17 1 -24 0 -46 1 -29 366 0M786 83l0 -17M786 83l1 24M787 153l0 -46M787 153l1 29 182 0"/>
<path stroke="blue" d="M50 23l46 0"/>
<text stroke="none" fill="white" font-size="16" x="106" y="32">
v(b)+2
</text>
<path stroke="blue" d="M50 414l184 0 0 -17 1 -24 0 -46 1 -29 182 0M418 315l0 -17M418 315l1 24M419 385l0 -46M419 385l1 29 182 0 0 -17 1 -24 0 -46 1 -29 182 0M786 315l0 -17M786 315l1 24M787 385l0 -46M787 385l1 29 182 0"/>
<path stroke="#FFA500" d="M460 39l46 0"/>
<text stroke="none" fill="white" font-size="16" x="516" y="48">
v(y)
</text>
<path stroke="#FFA500" d="M50 530l184 0 1 -1 9 0 1 1 173 0 1 -1M419 530l0 -1M419 530l1 1M420 532l0 -1M420 532l1 1 2 0 1 -1 6 0 1 -1 15 0 1 -1 155 0 1 -1 1 1M604 536l0 -6M604 536l1 7 6 54 1 8 1 7M613 619l0 -7M613 619l2 10 1 4 1 3 2 4 4 4 1 0 1 1"/>
<path stroke="#FFA500" d="M625 645l2 0 1 1 158 0M786 647l0 -1M786 647l1 2M787 650l0 -1M787 650l1 -1 0 -5 1 -5 4 -24 1 -5 3 -18 0 -5 1 -5 1 -6 1 -5 1 -4 1 -5 1 -4 1 -3 1 -4 1 -2 1 -3 2 -4 0 -2 1 -1 1 -2 2 -2 1 0 2 -2 1 0 1 -1 2 0 0 -1 6 0 1 -1"/>
<path stroke="#FFA500" d="M827 530l143 0"/>
</svg>
