<?xml version="1.0" standalone="yes"?>
<!DOCTYPE svg PUBLIC "-//W3C//DTD SVG 1.1//EN"
 "http://www.w3.org/Graphics/SVG/1.1/DTD/svg11.dtd">
<svg xmlns="http://www.w3.org/2000/svg" version="1.1"
  width="100%" height="100%" viewBox="0 0 1024 768"
  style="fill: none; font-family: Helvetica;
 font: Helvetica;
">

<!-- Creator: NGspice -->

<rect x="0" y="0" width="1024" height="768" fill="black" stroke="none"/>
<text stroke="none" fill="white" font-size="16" x="358" y="752">
time
</text>
<text stroke="none" fill="white" font-size="16" x="10" y="16">
tran1: SRAM Write Test
</text>
<path stroke="white" d="M50 704l0 -637"/>
<text stroke="none" fill="white" font-size="16" x="35" y="728">
0.0
</text>
<path stroke="white" stroke-dasharray="1,2" d="M204 704l0 -637"/>
<text stroke="none" fill="white" font-size="16" x="189" y="728">
0.5
</text>
<path stroke="white" stroke-dasharray="1,2" d="M358 704l0 -637"/>
<text stroke="none" fill="white" font-size="16" x="343" y="728">
1.0
</text>
<path stroke="white" stroke-dasharray="1,2" d="M512 704l0 -637"/>
<text stroke="none" fill="white" font-size="16" x="497" y="728">
1.5
</text>
<path stroke="white" stroke-dasharray="1,2" d="M666 704l0 -637"/>
<text stroke="none" fill="white" font-size="16" x="651" y="728">
2.0
</text>
<path stroke="white" stroke-dasharray="1,2" d="M820 704l0 -637"/>
<text stroke="none" fill="white" font-size="16" x="805" y="728">
2.5
</text>
<path stroke="white" stroke-dasharray="1,2" d="M974 704l0 -637"/>
<text stroke="none" fill="white" font-size="16" x="959" y="728">
3.0
</text>
<text stroke="none" fill="white" font-size="16" x="614" y="752">
ns
</text>
<path stroke="white" stroke-dasharray="1,2" d="M50 704l924 0"/>
<text stroke="none" fill="white" font-size="16" x="8" y="712">
-0.5
</text>
<path stroke="white" d="M50 613l924 0"/>
<text stroke="none" fill="white" font-size="16" x="18" y="621">
0.0
</text>
<path stroke="white" stroke-dasharray="1,2" d="M50 522l924 0"/>
<text stroke="none" fill="white" font-size="16" x="18" y="530">
0.5
</text>
<path stroke="white" stroke-dasharray="1,2" d="M50 431l924 0"/>
<text stroke="none" fill="white" font-size="16" x="18" y="439">
1.0
</text>
<path stroke="white" stroke-dasharray="1,2" d="M50 340l924 0"/>
<text stroke="none" fill="white" font-size="16" x="18" y="348">
1.5
</text>
<path stroke="white" stroke-dasharray="1,2" d="M50 249l924 0"/>
<text stroke="none" fill="white" font-size="16" x="18" y="257">
2.0
</text>
<path stroke="white" stroke-dasharray="1,2" d="M50 158l924 0"/>
<text stroke="none" fill="white" font-size="16" x="18" y="166">
2.5
</text>
<path stroke="white" stroke-dasharray="1,2" d="M50 67l924 0"/>
<text stroke="none" fill="white" font-size="16" x="18" y="75">
3.0
</text>
<text stroke="none" fill="white" font-size="16" x="10" y="32">
     
</text>
<path stroke="red" d="M462 23l46 0"/>
<text stroke="none" fill="white" font-size="16" x="518" y="32">
v(wl)+2
</text>
<path stroke="red" d="M50 249l370 0 0 -27 1 -37 1 -73 1 -45 154 0M577 94l0 -27M577 94l1 37 1 73 1 45 394 0"/>
<path stroke="blue" d="M50 23l46 0"/>
<text stroke="none" fill="white" font-size="16" x="106" y="32">
v(bl)
</text>
<path stroke="blue" d="M50 613l924 0"/>
<path stroke="#FFA500" d="M462 39l46 0"/>
<text stroke="none" fill="white" font-size="16" x="518" y="48">
v(q)
</text>
<path stroke="#FFA500" d="M50 431l370 0 0 -1 1 0 1 9 1 21M423 481l0 -21M423 481l1 26 1 50 2 39 1 11 2 4 1 1 3 0 2 1 141 0M577 614l0 -1M577 614l1 1 1 -1 1 0 0 -1 394 0"/>
<path stroke="green" d="M50 39l46 0"/>
<text stroke="none" fill="white" font-size="16" x="106" y="48">
v(qb)
</text>
<path stroke="green" d="M50 613l370 0 0 -1 1 0 1 -4 1 -7 0 -3 1 -8 1 -19 2 -26 1 -29 2 -26 1 -21 2 -15 1 -9 3 -9 2 -2 1 -2 2 0 1 -1 134 0M577 432l0 -1M577 432l1 1 2 0 1 -1 1 0 2 -1 390 0"/>
</svg>
