<?xml version="1.0" standalone="yes"?>
<!DOCTYPE svg PUBLIC "-//W3C//DTD SVG 1.1//EN"
 "http://www.w3.org/Graphics/SVG/1.1/DTD/svg11.dtd">
<svg xmlns="http://www.w3.org/2000/svg" version="1.1"
  width="100%" height="100%" viewBox="0 0 1024 768"
  style="fill: none; font-family: Helvetica;
 font: Helvetica;
">

<!-- Creator: NGspice -->

<rect x="0" y="0" width="1024" height="768" fill="black" stroke="none"/>
<text stroke="none" fill="white" font-size="16" x="358" y="752">
time
</text>
<text stroke="none" fill="white" font-size="16" x="10" y="16">
tran1: tgate
</text>
<path stroke="white" d="M50 704l0 -636"/>
<text stroke="none" fill="white" font-size="16" x="35" y="728">
0.0
</text>
<path stroke="white" stroke-dasharray="1,2" d="M165 704l0 -636"/>
<text stroke="none" fill="white" font-size="16" x="150" y="728">
0.5
</text>
<path stroke="white" stroke-dasharray="1,2" d="M280 704l0 -636"/>
<text stroke="none" fill="white" font-size="16" x="265" y="728">
1.0
</text>
<path stroke="white" stroke-dasharray="1,2" d="M395 704l0 -636"/>
<text stroke="none" fill="white" font-size="16" x="380" y="728">
1.5
</text>
<path stroke="white" stroke-dasharray="1,2" d="M510 704l0 -636"/>
<text stroke="none" fill="white" font-size="16" x="495" y="728">
2.0
</text>
<path stroke="white" stroke-dasharray="1,2" d="M625 704l0 -636"/>
<text stroke="none" fill="white" font-size="16" x="610" y="728">
2.5
</text>
<path stroke="white" stroke-dasharray="1,2" d="M740 704l0 -636"/>
<text stroke="none" fill="white" font-size="16" x="725" y="728">
3.0
</text>
<path stroke="white" stroke-dasharray="1,2" d="M855 704l0 -636"/>
<text stroke="none" fill="white" font-size="16" x="840" y="728">
3.5
</text>
<path stroke="white" stroke-dasharray="1,2" d="M970 704l0 -636"/>
<text stroke="none" fill="white" font-size="16" x="955" y="728">
4.0
</text>
<text stroke="none" fill="white" font-size="16" x="614" y="752">
ns
</text>
<path stroke="white" d="M50 704l920 0"/>
<text stroke="none" fill="white" font-size="16" x="18" y="712">
0.0
</text>
<path stroke="white" stroke-dasharray="1,2" d="M50 598l920 0"/>
<text stroke="none" fill="white" font-size="16" x="18" y="606">
0.5
</text>
<path stroke="white" stroke-dasharray="1,2" d="M50 492l920 0"/>
<text stroke="none" fill="white" font-size="16" x="18" y="500">
1.0
</text>
<path stroke="white" stroke-dasharray="1,2" d="M50 386l920 0"/>
<text stroke="none" fill="white" font-size="16" x="18" y="394">
1.5
</text>
<path stroke="white" stroke-dasharray="1,2" d="M50 280l920 0"/>
<text stroke="none" fill="white" font-size="16" x="18" y="288">
2.0
</text>
<path stroke="white" stroke-dasharray="1,2" d="M50 174l920 0"/>
<text stroke="none" fill="white" font-size="16" x="18" y="182">
2.5
</text>
<path stroke="white" stroke-dasharray="1,2" d="M50 68l920 0"/>
<text stroke="none" fill="white" font-size="16" x="18" y="76">
3.0
</text>
<text stroke="none" fill="white" font-size="16" x="10" y="32">
     
</text>
<path stroke="red" d="M460 23l46 0"/>
<text stroke="none" fill="white" font-size="16" x="516" y="32">
v(in)+2
</text>
<path stroke="red" d="M50 280l230 0 0 -32 1 -42 1 -85 0 -53 228 0M510 100l0 -32M510 100l1 42 1 85M512 280l0 -53M512 280l228 0 0 -32 1 -42 1 -85 0 -53 228 0"/>
<path stroke="blue" d="M50 23l46 0"/>
<text stroke="none" fill="white" font-size="16" x="106" y="32">
v(out)
</text>
<path stroke="blue" d="M50 704l230 0 0 -1 1 -4 1 -10 0 -8 1 -3 0 -6 1 -10 1 -11 1 -9 1 -7 2 -7 1 -7 1 -5 1 -6 1 -5 1 -6 2 -5 4 -20 1 -4 1 -5 2 -4 4 -16 1 -3 1 -4 2 -3 3 -9 2 -4 2 -3 2 -4 1 -1 2 -4 1 -1 2 -1 1 -2 5 -5 2 0 2 -2 1 0 1 -1 1 0 2 -1"/>
<path stroke="blue" d="M342 497l1 0 1 -1 2 0 1 -1 4 0 1 -1 6 0 1 -1 12 0 2 -1 137 0 1 2 1 5M512 508l0 -9M512 508l1 3M513 519l0 -8M513 519l1 14 2 32 1 15 2 14 2 28 1 13 1 12 1 10 2 10 1 7 2 12 1 4 1 3 1 2 2 2 1 2 3 3 1 0 1 1 4 0 1 1 195 0 0 -1"/>
<path stroke="blue" d="M740 703l1 -4 1 -10 0 -8 1 -3 0 -6 1 -10 1 -11 1 -9 1 -7 2 -7 1 -7 1 -5 1 -6 1 -5 1 -6 2 -5 4 -20 1 -4 1 -5 2 -4 4 -16 1 -3 1 -4 2 -3 3 -9 2 -4 2 -3 2 -4 1 -1 2 -4 1 -1 2 -1 1 -2 5 -5 2 0 2 -2 1 0 1 -1 1 0 2 -1 1 0 1 -1"/>
<path stroke="blue" d="M804 496l2 0 1 -1 4 0 1 -1 6 0 1 -1 12 0 2 -1 137 0"/>
</svg>
